<svg xmlns="http://www.w3.org/2000/svg" xmlns:xlink="http://www.w3.org/1999/xlink" width="1600" zoomAndPan="magnify" viewBox="0 0 1200 1199.999942" height="1600" preserveAspectRatio="xMidYMid meet" version="1.0"><defs><filter x="0%" y="0%" width="100%" height="100%" id="d7389c0923"><feColorMatrix values="0 0 0 0 1 0 0 0 0 1 0 0 0 0 1 0 0 0 1 0" color-interpolation-filters="sRGB"/></filter><mask id="6c9ce2932b"><g filter="url(#d7389c0923)"><rect x="-517" width="1728" fill="#000000" y="-355.999987" height="1727.999917" fill-opacity="0.24"/></g></mask><clipPath id="3f263a672a"><path d="M 0.160156 0.601562 L 114.398438 0.601562 L 114.398438 159.480469 L 0.160156 159.480469 Z M 0.160156 0.601562 " clip-rule="nonzero"/></clipPath><clipPath id="468fa2a731"><rect x="0" width="115" y="0" height="160"/></clipPath><clipPath id="85c9b47b3e"><path d="M 299 0.398438 L 405 0.398438 L 405 181 L 299 181 Z M 299 0.398438 " clip-rule="nonzero"/></clipPath><clipPath id="4236bcbbbd"><path d="M 0.441406 211 L 195 211 L 195 340 L 0.441406 340 Z M 0.441406 211 " clip-rule="nonzero"/></clipPath><clipPath id="23bea8ea5b"><path d="M 0.441406 211 L 176 211 L 176 455 L 0.441406 455 Z M 0.441406 211 " clip-rule="nonzero"/></clipPath><clipPath id="f033b79f11"><path d="M 0.441406 211 L 121 211 L 121 603 L 0.441406 603 Z M 0.441406 211 " clip-rule="nonzero"/></clipPath><clipPath id="c3e3a9f113"><path d="M 0.441406 537 L 283 537 L 283 712 L 0.441406 712 Z M 0.441406 537 " clip-rule="nonzero"/></clipPath><clipPath id="1a30294646"><path d="M 248 769 L 397 769 L 397 988 L 248 988 Z M 248 769 " clip-rule="nonzero"/></clipPath><clipPath id="9b7b023a19"><path d="M 445 211 L 693.558594 211 L 693.558594 465 L 445 465 Z M 445 211 " clip-rule="nonzero"/></clipPath><clipPath id="9c04c9d017"><path d="M 413 615 L 693.558594 615 L 693.558594 836 L 413 836 Z M 413 615 " clip-rule="nonzero"/></clipPath><clipPath id="ab6c095942"><path d="M 445 368 L 693.558594 368 L 693.558594 520 L 445 520 Z M 445 368 " clip-rule="nonzero"/></clipPath><clipPath id="9dbcd9c669"><path d="M 548 423 L 693.558594 423 L 693.558594 670 L 548 670 Z M 548 423 " clip-rule="nonzero"/></clipPath><clipPath id="412ac71896"><path d="M 125.707031 270.617188 L 166.773438 270.617188 L 166.773438 311.6875 L 125.707031 311.6875 Z M 125.707031 270.617188 " clip-rule="nonzero"/></clipPath><clipPath id="2935d5f475"><path d="M 146.238281 270.617188 C 134.898438 270.617188 125.707031 279.8125 125.707031 291.152344 C 125.707031 302.492188 134.898438 311.6875 146.238281 311.6875 C 157.582031 311.6875 166.773438 302.492188 166.773438 291.152344 C 166.773438 279.8125 157.582031 270.617188 146.238281 270.617188 Z M 146.238281 270.617188 " clip-rule="nonzero"/></clipPath><clipPath id="9681dc073c"><path d="M 0.707031 0.617188 L 41.773438 0.617188 L 41.773438 41.6875 L 0.707031 41.6875 Z M 0.707031 0.617188 " clip-rule="nonzero"/></clipPath><clipPath id="ffcdb425be"><path d="M 21.238281 0.617188 C 9.898438 0.617188 0.707031 9.8125 0.707031 21.152344 C 0.707031 32.492188 9.898438 41.6875 21.238281 41.6875 C 32.582031 41.6875 41.773438 32.492188 41.773438 21.152344 C 41.773438 9.8125 32.582031 0.617188 21.238281 0.617188 Z M 21.238281 0.617188 " clip-rule="nonzero"/></clipPath><clipPath id="e74859b74a"><rect x="0" width="42" y="0" height="42"/></clipPath><clipPath id="dc64a042b8"><path d="M 52.175781 533.035156 L 93.242188 533.035156 L 93.242188 574.105469 L 52.175781 574.105469 Z M 52.175781 533.035156 " clip-rule="nonzero"/></clipPath><clipPath id="a145638856"><path d="M 72.710938 533.035156 C 61.367188 533.035156 52.175781 542.230469 52.175781 553.570312 C 52.175781 564.910156 61.367188 574.105469 72.710938 574.105469 C 84.050781 574.105469 93.242188 564.910156 93.242188 553.570312 C 93.242188 542.230469 84.050781 533.035156 72.710938 533.035156 Z M 72.710938 533.035156 " clip-rule="nonzero"/></clipPath><clipPath id="616a9fb7f6"><path d="M 0.175781 0.0351562 L 41.242188 0.0351562 L 41.242188 41.105469 L 0.175781 41.105469 Z M 0.175781 0.0351562 " clip-rule="nonzero"/></clipPath><clipPath id="5bf57a6666"><path d="M 20.710938 0.0351562 C 9.367188 0.0351562 0.175781 9.230469 0.175781 20.570312 C 0.175781 31.910156 9.367188 41.105469 20.710938 41.105469 C 32.050781 41.105469 41.242188 31.910156 41.242188 20.570312 C 41.242188 9.230469 32.050781 0.0351562 20.710938 0.0351562 Z M 20.710938 0.0351562 " clip-rule="nonzero"/></clipPath><clipPath id="9fb49a4e09"><rect x="0" width="42" y="0" height="42"/></clipPath><clipPath id="db3c6b031d"><path d="M 259.433594 325.394531 L 300.5 325.394531 L 300.5 366.460938 L 259.433594 366.460938 Z M 259.433594 325.394531 " clip-rule="nonzero"/></clipPath><clipPath id="93f32ef619"><path d="M 279.964844 325.394531 C 268.625 325.394531 259.433594 334.585938 259.433594 345.929688 C 259.433594 357.269531 268.625 366.460938 279.964844 366.460938 C 291.308594 366.460938 300.5 357.269531 300.5 345.929688 C 300.5 334.585938 291.308594 325.394531 279.964844 325.394531 Z M 279.964844 325.394531 " clip-rule="nonzero"/></clipPath><clipPath id="6b98dad511"><path d="M 0.433594 0.394531 L 41.5 0.394531 L 41.5 41.460938 L 0.433594 41.460938 Z M 0.433594 0.394531 " clip-rule="nonzero"/></clipPath><clipPath id="cfa9e61844"><path d="M 20.964844 0.394531 C 9.625 0.394531 0.433594 9.585938 0.433594 20.929688 C 0.433594 32.269531 9.625 41.460938 20.964844 41.460938 C 32.308594 41.460938 41.5 32.269531 41.5 20.929688 C 41.5 9.585938 32.308594 0.394531 20.964844 0.394531 Z M 20.964844 0.394531 " clip-rule="nonzero"/></clipPath><clipPath id="67cea3afd7"><rect x="0" width="42" y="0" height="42"/></clipPath><clipPath id="4b6cb81bf1"><path d="M 335.796875 111.246094 L 376.863281 111.246094 L 376.863281 152.3125 L 335.796875 152.3125 Z M 335.796875 111.246094 " clip-rule="nonzero"/></clipPath><clipPath id="a155414c55"><path d="M 356.332031 111.246094 C 344.988281 111.246094 335.796875 120.441406 335.796875 131.78125 C 335.796875 143.121094 344.988281 152.3125 356.332031 152.3125 C 367.671875 152.3125 376.863281 143.121094 376.863281 131.78125 C 376.863281 120.441406 367.671875 111.246094 356.332031 111.246094 Z M 356.332031 111.246094 " clip-rule="nonzero"/></clipPath><clipPath id="ab04046feb"><path d="M 0.796875 0.246094 L 41.863281 0.246094 L 41.863281 41.3125 L 0.796875 41.3125 Z M 0.796875 0.246094 " clip-rule="nonzero"/></clipPath><clipPath id="e1c9851639"><path d="M 21.332031 0.246094 C 9.988281 0.246094 0.796875 9.441406 0.796875 20.78125 C 0.796875 32.121094 9.988281 41.3125 21.332031 41.3125 C 32.671875 41.3125 41.863281 32.121094 41.863281 20.78125 C 41.863281 9.441406 32.671875 0.246094 21.332031 0.246094 Z M 21.332031 0.246094 " clip-rule="nonzero"/></clipPath><clipPath id="e855708dc8"><rect x="0" width="42" y="0" height="42"/></clipPath><clipPath id="74acc8b432"><path d="M 371.335938 221.488281 L 412.40625 221.488281 L 412.40625 262.554688 L 371.335938 262.554688 Z M 371.335938 221.488281 " clip-rule="nonzero"/></clipPath><clipPath id="29e451673d"><path d="M 391.871094 221.488281 C 380.53125 221.488281 371.335938 230.679688 371.335938 242.023438 C 371.335938 253.363281 380.53125 262.554688 391.871094 262.554688 C 403.210938 262.554688 412.40625 253.363281 412.40625 242.023438 C 412.40625 230.679688 403.210938 221.488281 391.871094 221.488281 Z M 391.871094 221.488281 " clip-rule="nonzero"/></clipPath><clipPath id="9bfe0afc54"><path d="M 0.335938 0.488281 L 41.40625 0.488281 L 41.40625 41.554688 L 0.335938 41.554688 Z M 0.335938 0.488281 " clip-rule="nonzero"/></clipPath><clipPath id="e4d7bc3a07"><path d="M 20.871094 0.488281 C 9.53125 0.488281 0.335938 9.679688 0.335938 21.023438 C 0.335938 32.363281 9.53125 41.554688 20.871094 41.554688 C 32.210938 41.554688 41.40625 32.363281 41.40625 21.023438 C 41.40625 9.679688 32.210938 0.488281 20.871094 0.488281 Z M 20.871094 0.488281 " clip-rule="nonzero"/></clipPath><clipPath id="bb04a68690"><rect x="0" width="42" y="0" height="42"/></clipPath><clipPath id="7ecb75e049"><path d="M 473.109375 396.027344 L 514.175781 396.027344 L 514.175781 437.09375 L 473.109375 437.09375 Z M 473.109375 396.027344 " clip-rule="nonzero"/></clipPath><clipPath id="2e9fe376b7"><path d="M 493.644531 396.027344 C 482.300781 396.027344 473.109375 405.222656 473.109375 416.5625 C 473.109375 427.902344 482.300781 437.09375 493.644531 437.09375 C 504.984375 437.09375 514.175781 427.902344 514.175781 416.5625 C 514.175781 405.222656 504.984375 396.027344 493.644531 396.027344 Z M 493.644531 396.027344 " clip-rule="nonzero"/></clipPath><clipPath id="289d23a69f"><path d="M 0.109375 0.0273438 L 41.175781 0.0273438 L 41.175781 41.09375 L 0.109375 41.09375 Z M 0.109375 0.0273438 " clip-rule="nonzero"/></clipPath><clipPath id="70c9ac2552"><path d="M 20.644531 0.0273438 C 9.300781 0.0273438 0.109375 9.222656 0.109375 20.5625 C 0.109375 31.902344 9.300781 41.09375 20.644531 41.09375 C 31.984375 41.09375 41.175781 31.902344 41.175781 20.5625 C 41.175781 9.222656 31.984375 0.0273438 20.644531 0.0273438 Z M 20.644531 0.0273438 " clip-rule="nonzero"/></clipPath><clipPath id="f5ca087352"><rect x="0" width="42" y="0" height="42"/></clipPath><clipPath id="ed105e9dab"><path d="M 372.988281 483.886719 L 414.058594 483.886719 L 414.058594 524.953125 L 372.988281 524.953125 Z M 372.988281 483.886719 " clip-rule="nonzero"/></clipPath><clipPath id="b102637826"><path d="M 393.523438 483.886719 C 382.183594 483.886719 372.988281 493.078125 372.988281 504.421875 C 372.988281 515.761719 382.183594 524.953125 393.523438 524.953125 C 404.863281 524.953125 414.058594 515.761719 414.058594 504.421875 C 414.058594 493.078125 404.863281 483.886719 393.523438 483.886719 Z M 393.523438 483.886719 " clip-rule="nonzero"/></clipPath><clipPath id="41990f2027"><path d="M 0.988281 0.886719 L 42.058594 0.886719 L 42.058594 41.953125 L 0.988281 41.953125 Z M 0.988281 0.886719 " clip-rule="nonzero"/></clipPath><clipPath id="37b7e5be32"><path d="M 21.523438 0.886719 C 10.183594 0.886719 0.988281 10.078125 0.988281 21.421875 C 0.988281 32.761719 10.183594 41.953125 21.523438 41.953125 C 32.863281 41.953125 42.058594 32.761719 42.058594 21.421875 C 42.058594 10.078125 32.863281 0.886719 21.523438 0.886719 Z M 21.523438 0.886719 " clip-rule="nonzero"/></clipPath><clipPath id="7bcafae7cb"><rect x="0" width="43" y="0" height="42"/></clipPath><clipPath id="05802dcfe8"><path d="M 466.839844 496.851562 L 507.90625 496.851562 L 507.90625 537.921875 L 466.839844 537.921875 Z M 466.839844 496.851562 " clip-rule="nonzero"/></clipPath><clipPath id="5c574d5008"><path d="M 487.375 496.851562 C 476.03125 496.851562 466.839844 506.046875 466.839844 517.386719 C 466.839844 528.726562 476.03125 537.921875 487.375 537.921875 C 498.714844 537.921875 507.90625 528.726562 507.90625 517.386719 C 507.90625 506.046875 498.714844 496.851562 487.375 496.851562 Z M 487.375 496.851562 " clip-rule="nonzero"/></clipPath><clipPath id="d74f09b827"><path d="M 0.839844 0.851562 L 41.90625 0.851562 L 41.90625 41.921875 L 0.839844 41.921875 Z M 0.839844 0.851562 " clip-rule="nonzero"/></clipPath><clipPath id="fed7b28ce9"><path d="M 21.375 0.851562 C 10.03125 0.851562 0.839844 10.046875 0.839844 21.386719 C 0.839844 32.726562 10.03125 41.921875 21.375 41.921875 C 32.714844 41.921875 41.90625 32.726562 41.90625 21.386719 C 41.90625 10.046875 32.714844 0.851562 21.375 0.851562 Z M 21.375 0.851562 " clip-rule="nonzero"/></clipPath><clipPath id="c8da35549e"><rect x="0" width="42" y="0" height="42"/></clipPath><clipPath id="ec33a1e7f1"><path d="M 213.707031 565.003906 L 254.773438 565.003906 L 254.773438 606.074219 L 213.707031 606.074219 Z M 213.707031 565.003906 " clip-rule="nonzero"/></clipPath><clipPath id="cfd00287f0"><path d="M 234.238281 565.003906 C 222.898438 565.003906 213.707031 574.199219 213.707031 585.539062 C 213.707031 596.878906 222.898438 606.074219 234.238281 606.074219 C 245.582031 606.074219 254.773438 596.878906 254.773438 585.539062 C 254.773438 574.199219 245.582031 565.003906 234.238281 565.003906 Z M 234.238281 565.003906 " clip-rule="nonzero"/></clipPath><clipPath id="17fef59f15"><path d="M 0.707031 0.00390625 L 41.773438 0.00390625 L 41.773438 41.074219 L 0.707031 41.074219 Z M 0.707031 0.00390625 " clip-rule="nonzero"/></clipPath><clipPath id="ee4fb84b36"><path d="M 21.238281 0.00390625 C 9.898438 0.00390625 0.707031 9.199219 0.707031 20.539062 C 0.707031 31.878906 9.898438 41.074219 21.238281 41.074219 C 32.582031 41.074219 41.773438 31.878906 41.773438 20.539062 C 41.773438 9.199219 32.582031 0.00390625 21.238281 0.00390625 Z M 21.238281 0.00390625 " clip-rule="nonzero"/></clipPath><clipPath id="63f973a54b"><rect x="0" width="42" y="0" height="42"/></clipPath><clipPath id="c0cc14dc15"><path d="M 275.585938 796.890625 L 316.65625 796.890625 L 316.65625 837.957031 L 275.585938 837.957031 Z M 275.585938 796.890625 " clip-rule="nonzero"/></clipPath><clipPath id="9e5894983a"><path d="M 296.121094 796.890625 C 284.78125 796.890625 275.585938 806.082031 275.585938 817.425781 C 275.585938 828.765625 284.78125 837.957031 296.121094 837.957031 C 307.460938 837.957031 316.65625 828.765625 316.65625 817.425781 C 316.65625 806.082031 307.460938 796.890625 296.121094 796.890625 Z M 296.121094 796.890625 " clip-rule="nonzero"/></clipPath><clipPath id="60cfc021aa"><path d="M 0.585938 0.890625 L 41.65625 0.890625 L 41.65625 41.957031 L 0.585938 41.957031 Z M 0.585938 0.890625 " clip-rule="nonzero"/></clipPath><clipPath id="6970bfa5fa"><path d="M 21.121094 0.890625 C 9.78125 0.890625 0.585938 10.082031 0.585938 21.425781 C 0.585938 32.765625 9.78125 41.957031 21.121094 41.957031 C 32.460938 41.957031 41.65625 32.765625 41.65625 21.425781 C 41.65625 10.082031 32.460938 0.890625 21.121094 0.890625 Z M 21.121094 0.890625 " clip-rule="nonzero"/></clipPath><clipPath id="bc7e0538a9"><rect x="0" width="42" y="0" height="42"/></clipPath><clipPath id="9b9e9ece66"><path d="M 441.332031 766.417969 L 482.402344 766.417969 L 482.402344 807.488281 L 441.332031 807.488281 Z M 441.332031 766.417969 " clip-rule="nonzero"/></clipPath><clipPath id="d8739499ab"><path d="M 461.867188 766.417969 C 450.527344 766.417969 441.332031 775.613281 441.332031 786.953125 C 441.332031 798.292969 450.527344 807.488281 461.867188 807.488281 C 473.207031 807.488281 482.402344 798.292969 482.402344 786.953125 C 482.402344 775.613281 473.207031 766.417969 461.867188 766.417969 Z M 461.867188 766.417969 " clip-rule="nonzero"/></clipPath><clipPath id="7539cf60f7"><path d="M 0.332031 0.417969 L 41.402344 0.417969 L 41.402344 41.488281 L 0.332031 41.488281 Z M 0.332031 0.417969 " clip-rule="nonzero"/></clipPath><clipPath id="457497b0ea"><path d="M 20.867188 0.417969 C 9.527344 0.417969 0.332031 9.613281 0.332031 20.953125 C 0.332031 32.292969 9.527344 41.488281 20.867188 41.488281 C 32.207031 41.488281 41.402344 32.292969 41.402344 20.953125 C 41.402344 9.613281 32.207031 0.417969 20.867188 0.417969 Z M 20.867188 0.417969 " clip-rule="nonzero"/></clipPath><clipPath id="bb7aa16e8f"><rect x="0" width="42" y="0" height="42"/></clipPath><clipPath id="a85f938323"><path d="M 576.375 600.394531 L 617.441406 600.394531 L 617.441406 641.464844 L 576.375 641.464844 Z M 576.375 600.394531 " clip-rule="nonzero"/></clipPath><clipPath id="16c9eba963"><path d="M 596.90625 600.394531 C 585.566406 600.394531 576.375 609.589844 576.375 620.929688 C 576.375 632.269531 585.566406 641.464844 596.90625 641.464844 C 608.246094 641.464844 617.441406 632.269531 617.441406 620.929688 C 617.441406 609.589844 608.246094 600.394531 596.90625 600.394531 Z M 596.90625 600.394531 " clip-rule="nonzero"/></clipPath><clipPath id="e93db35f95"><path d="M 0.375 0.394531 L 41.441406 0.394531 L 41.441406 41.464844 L 0.375 41.464844 Z M 0.375 0.394531 " clip-rule="nonzero"/></clipPath><clipPath id="3106a9393b"><path d="M 20.90625 0.394531 C 9.566406 0.394531 0.375 9.589844 0.375 20.929688 C 0.375 32.269531 9.566406 41.464844 20.90625 41.464844 C 32.246094 41.464844 41.441406 32.269531 41.441406 20.929688 C 41.441406 9.589844 32.246094 0.394531 20.90625 0.394531 Z M 20.90625 0.394531 " clip-rule="nonzero"/></clipPath><clipPath id="300e442dff"><rect x="0" width="42" y="0" height="42"/></clipPath><clipPath id="efaeda0dfd"><path d="M 322.929688 938.703125 L 372.230469 938.703125 L 372.230469 988 L 322.929688 988 Z M 322.929688 938.703125 " clip-rule="nonzero"/></clipPath><clipPath id="b86fa34521"><path d="M 347.582031 938.703125 C 333.96875 938.703125 322.929688 949.738281 322.929688 963.351562 C 322.929688 976.964844 333.96875 988 347.582031 988 C 361.195312 988 372.230469 976.964844 372.230469 963.351562 C 372.230469 949.738281 361.195312 938.703125 347.582031 938.703125 Z M 347.582031 938.703125 " clip-rule="nonzero"/></clipPath><clipPath id="df067de677"><path d="M 0.929688 0.703125 L 50.230469 0.703125 L 50.230469 50 L 0.929688 50 Z M 0.929688 0.703125 " clip-rule="nonzero"/></clipPath><clipPath id="39cbfc430e"><path d="M 25.582031 0.703125 C 11.96875 0.703125 0.929688 11.738281 0.929688 25.351562 C 0.929688 38.964844 11.96875 50 25.582031 50 C 39.195312 50 50.230469 38.964844 50.230469 25.351562 C 50.230469 11.738281 39.195312 0.703125 25.582031 0.703125 Z M 25.582031 0.703125 " clip-rule="nonzero"/></clipPath><clipPath id="899a0d4c67"><rect x="0" width="51" y="0" height="50"/></clipPath><clipPath id="00499534ce"><path d="M 322.929688 0.636719 L 372.230469 0.636719 L 372.230469 49.9375 L 322.929688 49.9375 Z M 322.929688 0.636719 " clip-rule="nonzero"/></clipPath><clipPath id="3122f2cdd0"><path d="M 347.582031 0.636719 C 333.96875 0.636719 322.929688 11.671875 322.929688 25.285156 C 322.929688 38.898438 333.96875 49.9375 347.582031 49.9375 C 361.195312 49.9375 372.230469 38.898438 372.230469 25.285156 C 372.230469 11.671875 361.195312 0.636719 347.582031 0.636719 Z M 347.582031 0.636719 " clip-rule="nonzero"/></clipPath><clipPath id="5e7a450474"><path d="M 0.929688 0.636719 L 50.230469 0.636719 L 50.230469 49.9375 L 0.929688 49.9375 Z M 0.929688 0.636719 " clip-rule="nonzero"/></clipPath><clipPath id="b8b65b532a"><path d="M 25.582031 0.636719 C 11.96875 0.636719 0.929688 11.671875 0.929688 25.285156 C 0.929688 38.898438 11.96875 49.9375 25.582031 49.9375 C 39.195312 49.9375 50.230469 38.898438 50.230469 25.285156 C 50.230469 11.671875 39.195312 0.636719 25.582031 0.636719 Z M 25.582031 0.636719 " clip-rule="nonzero"/></clipPath><clipPath id="296587156a"><rect x="0" width="51" y="0" height="50"/></clipPath><clipPath id="f233440565"><path d="M 102.640625 151.945312 L 151.9375 151.945312 L 151.9375 201.246094 L 102.640625 201.246094 Z M 102.640625 151.945312 " clip-rule="nonzero"/></clipPath><clipPath id="bcbd72158e"><path d="M 127.289062 151.945312 C 113.675781 151.945312 102.640625 162.984375 102.640625 176.597656 C 102.640625 190.210938 113.675781 201.246094 127.289062 201.246094 C 140.902344 201.246094 151.9375 190.210938 151.9375 176.597656 C 151.9375 162.984375 140.902344 151.945312 127.289062 151.945312 Z M 127.289062 151.945312 " clip-rule="nonzero"/></clipPath><clipPath id="b78eb29fb6"><path d="M 0.640625 0.945312 L 49.9375 0.945312 L 49.9375 50.246094 L 0.640625 50.246094 Z M 0.640625 0.945312 " clip-rule="nonzero"/></clipPath><clipPath id="5662bfb334"><path d="M 25.289062 0.945312 C 11.675781 0.945312 0.640625 11.984375 0.640625 25.597656 C 0.640625 39.210938 11.675781 50.246094 25.289062 50.246094 C 38.902344 50.246094 49.9375 39.210938 49.9375 25.597656 C 49.9375 11.984375 38.902344 0.945312 25.289062 0.945312 Z M 25.289062 0.945312 " clip-rule="nonzero"/></clipPath><clipPath id="235b3264bf"><rect x="0" width="50" y="0" height="51"/></clipPath><clipPath id="15ea3fad6e"><path d="M 541.859375 151.945312 L 591.15625 151.945312 L 591.15625 201.246094 L 541.859375 201.246094 Z M 541.859375 151.945312 " clip-rule="nonzero"/></clipPath><clipPath id="d637779c72"><path d="M 566.507812 151.945312 C 552.894531 151.945312 541.859375 162.984375 541.859375 176.597656 C 541.859375 190.210938 552.894531 201.246094 566.507812 201.246094 C 580.121094 201.246094 591.15625 190.210938 591.15625 176.597656 C 591.15625 162.984375 580.121094 151.945312 566.507812 151.945312 Z M 566.507812 151.945312 " clip-rule="nonzero"/></clipPath><clipPath id="7872d0c38d"><path d="M 0.859375 0.945312 L 50.15625 0.945312 L 50.15625 50.246094 L 0.859375 50.246094 Z M 0.859375 0.945312 " clip-rule="nonzero"/></clipPath><clipPath id="a97d9b36ab"><path d="M 25.507812 0.945312 C 11.894531 0.945312 0.859375 11.984375 0.859375 25.597656 C 0.859375 39.210938 11.894531 50.246094 25.507812 50.246094 C 39.121094 50.246094 50.15625 39.210938 50.15625 25.597656 C 50.15625 11.984375 39.121094 0.945312 25.507812 0.945312 Z M 25.507812 0.945312 " clip-rule="nonzero"/></clipPath><clipPath id="f07486d874"><rect x="0" width="51" y="0" height="51"/></clipPath><clipPath id="40cd00aa34"><path d="M 644.152344 235.234375 L 693.453125 235.234375 L 693.453125 284.53125 L 644.152344 284.53125 Z M 644.152344 235.234375 " clip-rule="nonzero"/></clipPath><clipPath id="29543fe63c"><path d="M 668.800781 235.234375 C 655.1875 235.234375 644.152344 246.269531 644.152344 259.882812 C 644.152344 273.496094 655.1875 284.53125 668.800781 284.53125 C 682.414062 284.53125 693.453125 273.496094 693.453125 259.882812 C 693.453125 246.269531 682.414062 235.234375 668.800781 235.234375 Z M 668.800781 235.234375 " clip-rule="nonzero"/></clipPath><clipPath id="820ec0cc0f"><path d="M 0.152344 0.234375 L 49.453125 0.234375 L 49.453125 49.53125 L 0.152344 49.53125 Z M 0.152344 0.234375 " clip-rule="nonzero"/></clipPath><clipPath id="644b613919"><path d="M 24.800781 0.234375 C 11.1875 0.234375 0.152344 11.269531 0.152344 24.882812 C 0.152344 38.496094 11.1875 49.53125 24.800781 49.53125 C 38.414062 49.53125 49.453125 38.496094 49.453125 24.882812 C 49.453125 11.269531 38.414062 0.234375 24.800781 0.234375 Z M 24.800781 0.234375 " clip-rule="nonzero"/></clipPath><clipPath id="92e3098355"><rect x="0" width="50" y="0" height="50"/></clipPath><clipPath id="212c7e6f6d"><path d="M 0.546875 235.234375 L 49.847656 235.234375 L 49.847656 284.53125 L 0.546875 284.53125 Z M 0.546875 235.234375 " clip-rule="nonzero"/></clipPath><clipPath id="600fc96950"><path d="M 25.199219 235.234375 C 11.585938 235.234375 0.546875 246.269531 0.546875 259.882812 C 0.546875 273.496094 11.585938 284.53125 25.199219 284.53125 C 38.8125 284.53125 49.847656 273.496094 49.847656 259.882812 C 49.847656 246.269531 38.8125 235.234375 25.199219 235.234375 Z M 25.199219 235.234375 " clip-rule="nonzero"/></clipPath><clipPath id="68cb69456a"><path d="M 0.546875 0.234375 L 49.847656 0.234375 L 49.847656 49.53125 L 0.546875 49.53125 Z M 0.546875 0.234375 " clip-rule="nonzero"/></clipPath><clipPath id="d6fac7bfc7"><path d="M 25.199219 0.234375 C 11.585938 0.234375 0.546875 11.269531 0.546875 24.882812 C 0.546875 38.496094 11.585938 49.53125 25.199219 49.53125 C 38.8125 49.53125 49.847656 38.496094 49.847656 24.882812 C 49.847656 11.269531 38.8125 0.234375 25.199219 0.234375 Z M 25.199219 0.234375 " clip-rule="nonzero"/></clipPath><clipPath id="524e9775c2"><rect x="0" width="50" y="0" height="50"/></clipPath><clipPath id="7911d15f83"><path d="M 194.578125 220.707031 L 243.875 220.707031 L 243.875 270.003906 L 194.578125 270.003906 Z M 194.578125 220.707031 " clip-rule="nonzero"/></clipPath><clipPath id="419bf4132c"><path d="M 219.226562 220.707031 C 205.613281 220.707031 194.578125 231.742188 194.578125 245.355469 C 194.578125 258.96875 205.613281 270.003906 219.226562 270.003906 C 232.839844 270.003906 243.875 258.96875 243.875 245.355469 C 243.875 231.742188 232.839844 220.707031 219.226562 220.707031 Z M 219.226562 220.707031 " clip-rule="nonzero"/></clipPath><clipPath id="5e1308f546"><path d="M 0.578125 0.707031 L 49.875 0.707031 L 49.875 50.003906 L 0.578125 50.003906 Z M 0.578125 0.707031 " clip-rule="nonzero"/></clipPath><clipPath id="b56a381f32"><path d="M 25.226562 0.707031 C 11.613281 0.707031 0.578125 11.742188 0.578125 25.355469 C 0.578125 38.96875 11.613281 50.003906 25.226562 50.003906 C 38.839844 50.003906 49.875 38.96875 49.875 25.355469 C 49.875 11.742188 38.839844 0.707031 25.226562 0.707031 Z M 25.226562 0.707031 " clip-rule="nonzero"/></clipPath><clipPath id="8456a6a1f6"><rect x="0" width="50" y="0" height="51"/></clipPath><clipPath id="495335cb56"><path d="M 449.421875 219.9375 L 498.71875 219.9375 L 498.71875 269.238281 L 449.421875 269.238281 Z M 449.421875 219.9375 " clip-rule="nonzero"/></clipPath><clipPath id="5bfcc14b77"><path d="M 474.070312 219.9375 C 460.457031 219.9375 449.421875 230.972656 449.421875 244.585938 C 449.421875 258.199219 460.457031 269.238281 474.070312 269.238281 C 487.683594 269.238281 498.71875 258.199219 498.71875 244.585938 C 498.71875 230.972656 487.683594 219.9375 474.070312 219.9375 Z M 474.070312 219.9375 " clip-rule="nonzero"/></clipPath><clipPath id="28c0c3885c"><path d="M 0.421875 0.9375 L 49.71875 0.9375 L 49.71875 50.238281 L 0.421875 50.238281 Z M 0.421875 0.9375 " clip-rule="nonzero"/></clipPath><clipPath id="ce8e48538c"><path d="M 25.070312 0.9375 C 11.457031 0.9375 0.421875 11.972656 0.421875 25.585938 C 0.421875 39.199219 11.457031 50.238281 25.070312 50.238281 C 38.683594 50.238281 49.71875 39.199219 49.71875 25.585938 C 49.71875 11.972656 38.683594 0.9375 25.070312 0.9375 Z M 25.070312 0.9375 " clip-rule="nonzero"/></clipPath><clipPath id="bc7a884f55"><rect x="0" width="50" y="0" height="51"/></clipPath><clipPath id="5de2ef63fa"><path d="M 102.640625 381.421875 L 151.9375 381.421875 L 151.9375 430.722656 L 102.640625 430.722656 Z M 102.640625 381.421875 " clip-rule="nonzero"/></clipPath><clipPath id="a73b8e5459"><path d="M 127.289062 381.421875 C 113.675781 381.421875 102.640625 392.457031 102.640625 406.070312 C 102.640625 419.683594 113.675781 430.722656 127.289062 430.722656 C 140.902344 430.722656 151.9375 419.683594 151.9375 406.070312 C 151.9375 392.457031 140.902344 381.421875 127.289062 381.421875 Z M 127.289062 381.421875 " clip-rule="nonzero"/></clipPath><clipPath id="fae5f13453"><path d="M 0.640625 0.421875 L 49.9375 0.421875 L 49.9375 49.722656 L 0.640625 49.722656 Z M 0.640625 0.421875 " clip-rule="nonzero"/></clipPath><clipPath id="c43c9cbd5b"><path d="M 25.289062 0.421875 C 11.675781 0.421875 0.640625 11.457031 0.640625 25.070312 C 0.640625 38.683594 11.675781 49.722656 25.289062 49.722656 C 38.902344 49.722656 49.9375 38.683594 49.9375 25.070312 C 49.9375 11.457031 38.902344 0.421875 25.289062 0.421875 Z M 25.289062 0.421875 " clip-rule="nonzero"/></clipPath><clipPath id="b19336e3c0"><rect x="0" width="50" y="0" height="50"/></clipPath><clipPath id="4f2be33311"><path d="M 541.859375 381.421875 L 591.15625 381.421875 L 591.15625 430.722656 L 541.859375 430.722656 Z M 541.859375 381.421875 " clip-rule="nonzero"/></clipPath><clipPath id="b6b2c1db2b"><path d="M 566.507812 381.421875 C 552.894531 381.421875 541.859375 392.457031 541.859375 406.070312 C 541.859375 419.683594 552.894531 430.722656 566.507812 430.722656 C 580.121094 430.722656 591.15625 419.683594 591.15625 406.070312 C 591.15625 392.457031 580.121094 381.421875 566.507812 381.421875 Z M 566.507812 381.421875 " clip-rule="nonzero"/></clipPath><clipPath id="1f25df7bbc"><path d="M 0.859375 0.421875 L 50.15625 0.421875 L 50.15625 49.722656 L 0.859375 49.722656 Z M 0.859375 0.421875 " clip-rule="nonzero"/></clipPath><clipPath id="154bf3b41f"><path d="M 25.507812 0.421875 C 11.894531 0.421875 0.859375 11.457031 0.859375 25.070312 C 0.859375 38.683594 11.894531 49.722656 25.507812 49.722656 C 39.121094 49.722656 50.15625 38.683594 50.15625 25.070312 C 50.15625 11.457031 39.121094 0.421875 25.507812 0.421875 Z M 25.507812 0.421875 " clip-rule="nonzero"/></clipPath><clipPath id="e39fe06c8a"><rect x="0" width="51" y="0" height="50"/></clipPath><clipPath id="33a926f85c"><path d="M 644.152344 639.449219 L 693.453125 639.449219 L 693.453125 688.75 L 644.152344 688.75 Z M 644.152344 639.449219 " clip-rule="nonzero"/></clipPath><clipPath id="03df322f80"><path d="M 668.800781 639.449219 C 655.1875 639.449219 644.152344 650.488281 644.152344 664.101562 C 644.152344 677.714844 655.1875 688.75 668.800781 688.75 C 682.414062 688.75 693.453125 677.714844 693.453125 664.101562 C 693.453125 650.488281 682.414062 639.449219 668.800781 639.449219 Z M 668.800781 639.449219 " clip-rule="nonzero"/></clipPath><clipPath id="a80f3d52c6"><path d="M 0.152344 0.449219 L 49.453125 0.449219 L 49.453125 49.75 L 0.152344 49.75 Z M 0.152344 0.449219 " clip-rule="nonzero"/></clipPath><clipPath id="72f6fdcaef"><path d="M 24.800781 0.449219 C 11.1875 0.449219 0.152344 11.488281 0.152344 25.101562 C 0.152344 38.714844 11.1875 49.75 24.800781 49.75 C 38.414062 49.75 49.453125 38.714844 49.453125 25.101562 C 49.453125 11.488281 38.414062 0.449219 24.800781 0.449219 Z M 24.800781 0.449219 " clip-rule="nonzero"/></clipPath><clipPath id="267d97dbef"><rect x="0" width="50" y="0" height="50"/></clipPath><clipPath id="8a59e799e0"><path d="M 0.546875 639.449219 L 49.847656 639.449219 L 49.847656 688.75 L 0.546875 688.75 Z M 0.546875 639.449219 " clip-rule="nonzero"/></clipPath><clipPath id="1ffe85b538"><path d="M 25.199219 639.449219 C 11.585938 639.449219 0.546875 650.488281 0.546875 664.101562 C 0.546875 677.714844 11.585938 688.75 25.199219 688.75 C 38.8125 688.75 49.847656 677.714844 49.847656 664.101562 C 49.847656 650.488281 38.8125 639.449219 25.199219 639.449219 Z M 25.199219 639.449219 " clip-rule="nonzero"/></clipPath><clipPath id="d9c095a90e"><path d="M 0.546875 0.449219 L 49.847656 0.449219 L 49.847656 49.75 L 0.546875 49.75 Z M 0.546875 0.449219 " clip-rule="nonzero"/></clipPath><clipPath id="c8058e8880"><path d="M 25.199219 0.449219 C 11.585938 0.449219 0.546875 11.488281 0.546875 25.101562 C 0.546875 38.714844 11.585938 49.75 25.199219 49.75 C 38.8125 49.75 49.847656 38.714844 49.847656 25.101562 C 49.847656 11.488281 38.8125 0.449219 25.199219 0.449219 Z M 25.199219 0.449219 " clip-rule="nonzero"/></clipPath><clipPath id="ca2ea4d4fc"><rect x="0" width="50" y="0" height="50"/></clipPath><clipPath id="74e927e640"><path d="M 179.992188 677.78125 L 229.289062 677.78125 L 229.289062 727.082031 L 179.992188 727.082031 Z M 179.992188 677.78125 " clip-rule="nonzero"/></clipPath><clipPath id="9f57b95643"><path d="M 204.640625 677.78125 C 191.027344 677.78125 179.992188 688.820312 179.992188 702.433594 C 179.992188 716.046875 191.027344 727.082031 204.640625 727.082031 C 218.253906 727.082031 229.289062 716.046875 229.289062 702.433594 C 229.289062 688.820312 218.253906 677.78125 204.640625 677.78125 Z M 204.640625 677.78125 " clip-rule="nonzero"/></clipPath><clipPath id="9d0553fb55"><path d="M 0.992188 0.78125 L 50.289062 0.78125 L 50.289062 50.082031 L 0.992188 50.082031 Z M 0.992188 0.78125 " clip-rule="nonzero"/></clipPath><clipPath id="30b8d026d8"><path d="M 25.640625 0.78125 C 12.027344 0.78125 0.992188 11.820312 0.992188 25.433594 C 0.992188 39.046875 12.027344 50.082031 25.640625 50.082031 C 39.253906 50.082031 50.289062 39.046875 50.289062 25.433594 C 50.289062 11.820312 39.253906 0.78125 25.640625 0.78125 Z M 25.640625 0.78125 " clip-rule="nonzero"/></clipPath><clipPath id="19c0acdbb6"><rect x="0" width="51" y="0" height="51"/></clipPath><clipPath id="dbefd7a741"><path d="M 463.648438 677.78125 L 512.945312 677.78125 L 512.945312 727.082031 L 463.648438 727.082031 Z M 463.648438 677.78125 " clip-rule="nonzero"/></clipPath><clipPath id="a10cdfeba1"><path d="M 488.296875 677.78125 C 474.683594 677.78125 463.648438 688.820312 463.648438 702.433594 C 463.648438 716.046875 474.683594 727.082031 488.296875 727.082031 C 501.910156 727.082031 512.945312 716.046875 512.945312 702.433594 C 512.945312 688.820312 501.910156 677.78125 488.296875 677.78125 Z M 488.296875 677.78125 " clip-rule="nonzero"/></clipPath><clipPath id="1fafc67430"><path d="M 0.648438 0.78125 L 49.945312 0.78125 L 49.945312 50.082031 L 0.648438 50.082031 Z M 0.648438 0.78125 " clip-rule="nonzero"/></clipPath><clipPath id="e8b2b4b686"><path d="M 25.296875 0.78125 C 11.683594 0.78125 0.648438 11.820312 0.648438 25.433594 C 0.648438 39.046875 11.683594 50.082031 25.296875 50.082031 C 38.910156 50.082031 49.945312 39.046875 49.945312 25.433594 C 49.945312 11.820312 38.910156 0.78125 25.296875 0.78125 Z M 25.296875 0.78125 " clip-rule="nonzero"/></clipPath><clipPath id="41a5df0d14"><rect x="0" width="50" y="0" height="51"/></clipPath><clipPath id="dbf14c5e53"><path d="M 295.214844 737.105469 L 344.511719 737.105469 L 344.511719 786.402344 L 295.214844 786.402344 Z M 295.214844 737.105469 " clip-rule="nonzero"/></clipPath><clipPath id="fd0fe2d387"><path d="M 319.863281 737.105469 C 306.25 737.105469 295.214844 748.140625 295.214844 761.753906 C 295.214844 775.367188 306.25 786.402344 319.863281 786.402344 C 333.476562 786.402344 344.511719 775.367188 344.511719 761.753906 C 344.511719 748.140625 333.476562 737.105469 319.863281 737.105469 Z M 319.863281 737.105469 " clip-rule="nonzero"/></clipPath><clipPath id="88b757283a"><path d="M 0.214844 0.105469 L 49.511719 0.105469 L 49.511719 49.402344 L 0.214844 49.402344 Z M 0.214844 0.105469 " clip-rule="nonzero"/></clipPath><clipPath id="8939c03e46"><path d="M 24.863281 0.105469 C 11.25 0.105469 0.214844 11.140625 0.214844 24.753906 C 0.214844 38.367188 11.25 49.402344 24.863281 49.402344 C 38.476562 49.402344 49.511719 38.367188 49.511719 24.753906 C 49.511719 11.140625 38.476562 0.105469 24.863281 0.105469 Z M 24.863281 0.105469 " clip-rule="nonzero"/></clipPath><clipPath id="b6aaa72a9a"><rect x="0" width="50" y="0" height="50"/></clipPath><clipPath id="349a5776db"><path d="M 142.992188 779.492188 L 192.289062 779.492188 L 192.289062 828.789062 L 142.992188 828.789062 Z M 142.992188 779.492188 " clip-rule="nonzero"/></clipPath><clipPath id="353af9a4c2"><path d="M 167.640625 779.492188 C 154.027344 779.492188 142.992188 790.527344 142.992188 804.140625 C 142.992188 817.753906 154.027344 828.789062 167.640625 828.789062 C 181.253906 828.789062 192.289062 817.753906 192.289062 804.140625 C 192.289062 790.527344 181.253906 779.492188 167.640625 779.492188 Z M 167.640625 779.492188 " clip-rule="nonzero"/></clipPath><clipPath id="c5d96b3eee"><path d="M 0.992188 0.492188 L 50.289062 0.492188 L 50.289062 49.789062 L 0.992188 49.789062 Z M 0.992188 0.492188 " clip-rule="nonzero"/></clipPath><clipPath id="317ca32018"><path d="M 25.640625 0.492188 C 12.027344 0.492188 0.992188 11.527344 0.992188 25.140625 C 0.992188 38.753906 12.027344 49.789062 25.640625 49.789062 C 39.253906 49.789062 50.289062 38.753906 50.289062 25.140625 C 50.289062 11.527344 39.253906 0.492188 25.640625 0.492188 Z M 25.640625 0.492188 " clip-rule="nonzero"/></clipPath><clipPath id="d4faebd842"><rect x="0" width="51" y="0" height="50"/></clipPath><clipPath id="0401c5464f"><path d="M 299 0.398438 L 522 0.398438 L 522 293 L 299 293 Z M 299 0.398438 " clip-rule="nonzero"/></clipPath><clipPath id="2a537c2f6a"><path d="M 171 0.398438 L 395 0.398438 L 395 295 L 171 295 Z M 171 0.398438 " clip-rule="nonzero"/></clipPath><clipPath id="422c62d2a1"><path d="M 297 0.398438 L 613 0.398438 L 613 226 L 297 226 Z M 297 0.398438 " clip-rule="nonzero"/></clipPath><clipPath id="0b31f86d85"><path d="M 80 0.398438 L 396 0.398438 L 396 227 L 80 227 Z M 80 0.398438 " clip-rule="nonzero"/></clipPath><clipPath id="853f7b905a"><path d="M 0.441406 126 L 177 126 L 177 308 L 0.441406 308 Z M 0.441406 126 " clip-rule="nonzero"/></clipPath><clipPath id="9da3aaf4eb"><path d="M 518 128 L 693.558594 128 L 693.558594 308 L 518 308 Z M 518 128 " clip-rule="nonzero"/></clipPath><clipPath id="09c95e41f5"><path d="M 0.441406 211 L 176 211 L 176 455 L 0.441406 455 Z M 0.441406 211 " clip-rule="nonzero"/></clipPath><clipPath id="b430990c15"><path d="M 0.441406 211 L 74 211 L 74 713 L 0.441406 713 Z M 0.441406 211 " clip-rule="nonzero"/></clipPath><clipPath id="a313ce50c7"><path d="M 0.441406 615 L 216 615 L 216 853 L 0.441406 853 Z M 0.441406 615 " clip-rule="nonzero"/></clipPath><clipPath id="73f6edf035"><path d="M 0.441406 616 L 253 616 L 253 751 L 0.441406 751 Z M 0.441406 616 " clip-rule="nonzero"/></clipPath><clipPath id="ccc11d91d0"><path d="M 0.441406 357 L 176 357 L 176 714 L 0.441406 714 Z M 0.441406 357 " clip-rule="nonzero"/></clipPath><clipPath id="2ba935a243"><path d="M 119 756 L 397 756 L 397 988 L 119 988 Z M 119 756 " clip-rule="nonzero"/></clipPath><clipPath id="6a74c0d5e5"><path d="M 156 654 L 396 654 L 396 988 L 156 988 Z M 156 654 " clip-rule="nonzero"/></clipPath><clipPath id="7243bceefc"><path d="M 518 211 L 693.558594 211 L 693.558594 455 L 518 455 Z M 518 211 " clip-rule="nonzero"/></clipPath><clipPath id="5759ee338e"><path d="M 299 654 L 537 654 L 537 988 L 299 988 Z M 299 654 " clip-rule="nonzero"/></clipPath><clipPath id="9f7c793750"><path d="M 271 713 L 396 713 L 396 988 L 271 988 Z M 271 713 " clip-rule="nonzero"/></clipPath><clipPath id="5d6cb42c1d"><path d="M 299 616 L 693.558594 616 L 693.558594 988 L 299 988 Z M 299 616 " clip-rule="nonzero"/></clipPath><clipPath id="5c682d948f"><path d="M 620 211 L 693.558594 211 L 693.558594 713 L 620 713 Z M 620 211 " clip-rule="nonzero"/></clipPath><clipPath id="9d11abb2e4"><path d="M 440 616 L 693.558594 616 L 693.558594 751 L 440 751 Z M 440 616 " clip-rule="nonzero"/></clipPath><clipPath id="258705fecc"><path d="M 518 357 L 693.558594 357 L 693.558594 713 L 518 713 Z M 518 357 " clip-rule="nonzero"/></clipPath><clipPath id="72ba4cdafd"><rect x="0" width="694" y="0" height="988"/></clipPath></defs><g transform="matrix(1, 0, 0, 1, 253, 92)"><g clip-path="url(#72ba4cdafd)"><g mask="url(#6c9ce2932b)"><g transform="matrix(1, 0, 0, 1, 19, 253)"><g clip-path="url(#468fa2a731)"><g clip-path="url(#3f263a672a)"><path stroke-linecap="butt" transform="matrix(0.811619, 1.163883, -1.163883, 0.811619, 9.609886, 4.233289)" fill="none" stroke-linejoin="miter" d="M -0.000526745 3.000536 L 125.982076 3.000476 " stroke="#404040" stroke-width="6" stroke-opacity="1" stroke-miterlimit="4"/></g></g></g></g><g clip-path="url(#85c9b47b3e)"><path stroke-linecap="butt" transform="matrix(0.115034, 1.414255, -1.414255, 0.115034, 352.051226, 25.309066)" fill="none" stroke-linejoin="miter" d="M -0.00127304 2.999803 L 75.248177 2.999775 " stroke="#404040" stroke-width="6" stroke-opacity="1" stroke-miterlimit="4"/></g><path stroke-linecap="butt" transform="matrix(0.436688, 1.350057, -1.350057, 0.436688, 360.245912, 130.207762)" fill="none" stroke-linejoin="miter" d="M 0.00105128 3.000658 L 81.557803 2.998906 " stroke="#404040" stroke-width="6" stroke-opacity="1" stroke-miterlimit="4"/><path stroke-linecap="butt" transform="matrix(1.387689, 0.296089, -0.296089, 1.387689, 357.180755, 127.839946)" fill="none" stroke-linejoin="miter" d="M 0.000463849 3.000546 L 151.435054 2.99893 " stroke="#404040" stroke-width="6" stroke-opacity="1" stroke-miterlimit="4"/><path stroke-linecap="butt" transform="matrix(-1.391881, 0.275709, -0.275709, -1.391881, 356.830247, 135.893611)" fill="none" stroke-linejoin="miter" d="M -0.000435983 2.999351 L 163.910443 2.999542 " stroke="#404040" stroke-width="6" stroke-opacity="1" stroke-miterlimit="4"/><path stroke-linecap="butt" transform="matrix(-1.131574, 0.856089, -0.856089, -1.131574, 359.184251, 135.294168)" fill="none" stroke-linejoin="miter" d="M -0.00110498 3.000054 L 186.129507 3.000613 " stroke="#404040" stroke-width="6" stroke-opacity="1" stroke-miterlimit="4"/><path stroke-linecap="butt" transform="matrix(-0.225549, -1.400884, 1.400884, -0.225549, 142.199397, 291.978442)" fill="none" stroke-linejoin="miter" d="M 0.000671493 3.000319 L 81.645445 3.000929 " stroke="#404040" stroke-width="6" stroke-opacity="1" stroke-miterlimit="4"/><path stroke-linecap="butt" transform="matrix(1.039649, -0.965649, 0.965649, 1.039649, 277.268144, 342.650897)" fill="none" stroke-linejoin="miter" d="M -0.000381827 2.999344 L 107.396773 3.000274 " stroke="#404040" stroke-width="6" stroke-opacity="1" stroke-miterlimit="4"/><path stroke-linecap="butt" transform="matrix(1.315582, 0.531594, -0.531594, 1.315582, 147.815638, 287.780844)" fill="none" stroke-linejoin="miter" d="M 0.000904424 2.998853 L 101.860128 2.999376 " stroke="#404040" stroke-width="6" stroke-opacity="1" stroke-miterlimit="4"/><g clip-path="url(#4236bcbbbd)"><path stroke-linecap="butt" transform="matrix(1.374276, 0.353148, -0.353148, 1.374276, 26.244105, 256.015124)" fill="none" stroke-linejoin="miter" d="M -0.000944549 2.999345 L 87.857833 2.999465 " stroke="#404040" stroke-width="6" stroke-opacity="1" stroke-miterlimit="4"/></g><path stroke-linecap="butt" transform="matrix(-0.227956, 1.400494, -1.400494, -0.227956, 150.415882, 292.0293)" fill="none" stroke-linejoin="miter" d="M -0.0012195 2.999881 L 81.897707 2.99887 " stroke="#404040" stroke-width="6" stroke-opacity="1" stroke-miterlimit="4"/><g clip-path="url(#23bea8ea5b)"><path stroke-linecap="butt" transform="matrix(0.812996, 1.162921, -1.162921, 0.812996, 28.549213, 257.280925)" fill="none" stroke-linejoin="miter" d="M -0.00142054 3.000602 L 126.065354 3.000258 " stroke="#404040" stroke-width="6" stroke-opacity="1" stroke-miterlimit="4"/></g><g clip-path="url(#f033b79f11)"><path stroke-linecap="butt" transform="matrix(0.22563, 1.400871, -1.400871, 0.22563, 29.644652, 259.144383)" fill="none" stroke-linejoin="miter" d="M -0.000739396 3.000332 L 210.013794 2.999541 " stroke="#404040" stroke-width="6" stroke-opacity="1" stroke-miterlimit="4"/></g><path stroke-linecap="butt" transform="matrix(-1.320254, 0.519882, -0.519882, -1.320254, 281.344513, 349.941367)" fill="none" stroke-linejoin="miter" d="M -0.000225083 3.000014 L 115.910713 2.998739 " stroke="#404040" stroke-width="6" stroke-opacity="1" stroke-miterlimit="4"/><path stroke-linecap="butt" transform="matrix(-0.269655, 1.393067, -1.393067, -0.269655, 284.588144, 346.790721)" fill="none" stroke-linejoin="miter" d="M -0.001053 2.999333 L 172.003244 3.000023 " stroke="#404040" stroke-width="6" stroke-opacity="1" stroke-miterlimit="4"/><path stroke-linecap="butt" transform="matrix(0.829429, 1.151259, -1.151259, 0.829429, 283.580684, 344.162383)" fill="none" stroke-linejoin="miter" d="M 0.000171414 3.001781 L 137.049709 2.999213 " stroke="#404040" stroke-width="6" stroke-opacity="1" stroke-miterlimit="4"/><path stroke-linecap="butt" transform="matrix(1.347819, 0.443545, -0.443545, 1.347819, 281.128302, 341.94918)" fill="none" stroke-linejoin="miter" d="M -0.000629794 2.999873 L 158.664238 2.999896 " stroke="#404040" stroke-width="6" stroke-opacity="1" stroke-miterlimit="4"/><path stroke-linecap="butt" transform="matrix(0.716033, 1.225008, -1.225008, 0.716033, 395.442235, 239.933133)" fill="none" stroke-linejoin="miter" d="M -0.0000789679 3.001249 L 142.277417 2.998428 " stroke="#404040" stroke-width="6" stroke-opacity="1" stroke-miterlimit="4"/><path stroke-linecap="butt" transform="matrix(-0.423415, 1.354278, -1.354278, -0.423415, 478.453099, 245.853417)" fill="none" stroke-linejoin="miter" d="M -0.000842268 2.999998 L 191.810144 2.999367 " stroke="#404040" stroke-width="6" stroke-opacity="1" stroke-miterlimit="4"/><path stroke-linecap="butt" transform="matrix(0.725937, 1.219166, -1.219166, 0.725937, 131.095502, 403.965912)" fill="none" stroke-linejoin="miter" d="M 0.000307751 3.000598 L 147.190788 3.000124 " stroke="#404040" stroke-width="6" stroke-opacity="1" stroke-miterlimit="4"/><path stroke-linecap="butt" transform="matrix(1.392156, 0.274316, -0.274316, 1.392156, 73.614276, 549.554842)" fill="none" stroke-linejoin="miter" d="M 0.00101865 2.999194 L 115.968909 2.999693 " stroke="#404040" stroke-width="6" stroke-opacity="1" stroke-miterlimit="4"/><g clip-path="url(#c3e3a9f113)"><path stroke-linecap="butt" transform="matrix(1.329299, -0.4963, 0.4963, 1.329299, 24.122104, 659.724505)" fill="none" stroke-linejoin="miter" d="M -0.000715601 2.998632 L 156.945394 2.999988 " stroke="#404040" stroke-width="6" stroke-opacity="1" stroke-miterlimit="4"/></g><path stroke-linecap="butt" transform="matrix(0.502052, 1.327137, -1.327137, 0.502052, 76.972373, 552.143914)" fill="none" stroke-linejoin="miter" d="M -0.000770478 2.998785 L 188.898244 2.999671 " stroke="#404040" stroke-width="6" stroke-opacity="1" stroke-miterlimit="4"/><path stroke-linecap="butt" transform="matrix(-1.263574, 0.645545, -0.645545, -1.263574, 395.741122, 508.115246)" fill="none" stroke-linejoin="miter" d="M -0.000223275 3.000127 L 126.430198 2.999594 " stroke="#404040" stroke-width="6" stroke-opacity="1" stroke-miterlimit="4"/><path stroke-linecap="butt" transform="matrix(-0.978834, 1.027245, -1.027245, -0.978834, 396.603917, 506.978918)" fill="none" stroke-linejoin="miter" d="M -0.000327517 2.99909 L 192.86654 2.999494 " stroke="#404040" stroke-width="6" stroke-opacity="1" stroke-miterlimit="4"/><path stroke-linecap="butt" transform="matrix(0.350896, -1.374853, 1.374853, 0.350896, 200.819012, 701.384469)" fill="none" stroke-linejoin="miter" d="M 0.0000696924 3.001249 L 84.761902 3.000944 " stroke="#404040" stroke-width="6" stroke-opacity="1" stroke-miterlimit="4"/><path stroke-linecap="butt" transform="matrix(-0.366854, -1.370681, 1.370681, -0.366854, 292.174452, 818.815306)" fill="none" stroke-linejoin="miter" d="M 0.000177267 2.99907 L 169.558328 2.998989 " stroke="#404040" stroke-width="6" stroke-opacity="1" stroke-miterlimit="4"/><path stroke-linecap="butt" transform="matrix(-1.062144, -0.94085, 0.94085, -1.062144, 459.445365, 791.025877)" fill="none" stroke-linejoin="miter" d="M -0.00103932 3.000545 L 214.890184 2.999866 " stroke="#404040" stroke-width="6" stroke-opacity="1" stroke-miterlimit="4"/><path stroke-linecap="butt" transform="matrix(-1.411623, -0.143765, 0.143765, -1.411623, 294.980565, 821.38981)" fill="none" stroke-linejoin="miter" d="M 0.00110151 2.99896 L 73.141122 2.999413 " stroke="#404040" stroke-width="6" stroke-opacity="1" stroke-miterlimit="4"/><g clip-path="url(#1a30294646)"><path stroke-linecap="butt" transform="matrix(-0.472414, -1.337974, 1.337974, -0.472414, 344.044975, 965.584485)" fill="none" stroke-linejoin="miter" d="M -0.000410278 2.999629 L 109.172246 2.99995 " stroke="#404040" stroke-width="6" stroke-opacity="1" stroke-miterlimit="4"/></g><path stroke-linecap="butt" transform="matrix(0.800927, -1.171266, 1.171266, 0.800927, 316.335526, 760.1764)" fill="none" stroke-linejoin="miter" d="M -0.0000489862 2.998609 L 209.112278 2.999128 " stroke="#404040" stroke-width="6" stroke-opacity="1" stroke-miterlimit="4"/><path stroke-linecap="butt" transform="matrix(1.405531, 0.194503, -0.194503, 1.405531, 394.217511, 500.121063)" fill="none" stroke-linejoin="miter" d="M -0.000995943 2.998915 L 66.608194 2.999865 " stroke="#404040" stroke-width="6" stroke-opacity="1" stroke-miterlimit="4"/><path stroke-linecap="butt" transform="matrix(1.070075, -0.93182, 0.93182, 1.070075, 390.861142, 500.743263)" fill="none" stroke-linejoin="miter" d="M -0.0000196861 2.999644 L 93.82324 3.000218 " stroke="#404040" stroke-width="6" stroke-opacity="1" stroke-miterlimit="4"/><g clip-path="url(#9b7b023a19)"><path stroke-linecap="butt" transform="matrix(1.058429, -0.945027, 0.945027, 1.058429, 490.536018, 413.055863)" fill="none" stroke-linejoin="miter" d="M 0.000316878 2.999639 L 165.542363 2.999951 " stroke="#404040" stroke-width="6" stroke-opacity="1" stroke-miterlimit="4"/></g><path stroke-linecap="butt" transform="matrix(0.0839935, -1.416437, 1.416437, 0.0839935, 483.490459, 517.221877)" fill="none" stroke-linejoin="miter" d="M 0.000783301 2.998903 L 71.171434 3.000735 " stroke="#404040" stroke-width="6" stroke-opacity="1" stroke-miterlimit="4"/><path stroke-linecap="butt" transform="matrix(1.030619, 0.975282, -0.975282, 1.030619, 490.016178, 514.298222)" fill="none" stroke-linejoin="miter" d="M 0.000014449 3.000517 L 106.128361 2.999438 " stroke="#404040" stroke-width="6" stroke-opacity="1" stroke-miterlimit="4"/><path stroke-linecap="butt" transform="matrix(-0.134665, 1.41252, -1.41252, -0.134665, 491.484186, 517.793101)" fill="none" stroke-linejoin="miter" d="M 0.00110085 3.000271 L 191.032718 3.001193 " stroke="#404040" stroke-width="6" stroke-opacity="1" stroke-miterlimit="4"/><g clip-path="url(#9c04c9d017)"><path stroke-linecap="butt" transform="matrix(1.219727, -0.724994, 0.724994, 1.219727, 459.815541, 783.29075)" fill="none" stroke-linejoin="miter" d="M 0.00126464 3.000169 L 169.615212 3.000421 " stroke="#404040" stroke-width="6" stroke-opacity="1" stroke-miterlimit="4"/></g><path stroke-linecap="butt" transform="matrix(-0.894577, 1.101399, -1.101399, -0.894577, 600.177272, 623.666908)" fill="none" stroke-linejoin="miter" d="M -0.000199782 2.998414 L 150.687428 3.001106 " stroke="#404040" stroke-width="6" stroke-opacity="1" stroke-miterlimit="4"/><path stroke-linecap="butt" transform="matrix(1.394799, -0.260547, 0.260547, 1.394799, 295.268143, 813.290795)" fill="none" stroke-linejoin="miter" d="M 0.000512488 3.001079 L 118.722935 3.000532 " stroke="#404040" stroke-width="6" stroke-opacity="1" stroke-miterlimit="4"/><g clip-path="url(#ab6c095942)"><path stroke-linecap="butt" transform="matrix(1.353847, 0.42479, -0.42479, 1.353847, 494.931306, 412.458959)" fill="none" stroke-linejoin="miter" d="M -0.000665258 2.999493 L 129.421972 2.99883 " stroke="#404040" stroke-width="6" stroke-opacity="1" stroke-miterlimit="4"/></g><g clip-path="url(#9dbcd9c669)"><path stroke-linecap="butt" transform="matrix(0.616931, -1.277789, 1.277789, 0.616931, 592.604625, 619.07374)" fill="none" stroke-linejoin="miter" d="M -0.000944106 3.00007 L 116.946111 3.000251 " stroke="#404040" stroke-width="6" stroke-opacity="1" stroke-miterlimit="4"/></g><g clip-path="url(#412ac71896)"><g clip-path="url(#2935d5f475)"><g transform="matrix(1, 0, 0, 1, 125, 270)"><g clip-path="url(#e74859b74a)"><g clip-path="url(#9681dc073c)"><g clip-path="url(#ffcdb425be)"><path fill="#404040" d="M 0.707031 0.617188 L 41.773438 0.617188 L 41.773438 41.6875 L 0.707031 41.6875 Z M 0.707031 0.617188 " fill-opacity="1" fill-rule="nonzero"/></g></g></g></g></g></g><g clip-path="url(#dc64a042b8)"><g clip-path="url(#a145638856)"><g transform="matrix(1, 0, 0, 1, 52, 533)"><g clip-path="url(#9fb49a4e09)"><g clip-path="url(#616a9fb7f6)"><g clip-path="url(#5bf57a6666)"><path fill="#404040" d="M 0.175781 0.0351562 L 41.242188 0.0351562 L 41.242188 41.105469 L 0.175781 41.105469 Z M 0.175781 0.0351562 " fill-opacity="1" fill-rule="nonzero"/></g></g></g></g></g></g><g clip-path="url(#db3c6b031d)"><g clip-path="url(#93f32ef619)"><g transform="matrix(1, 0, 0, 1, 259, 325)"><g clip-path="url(#67cea3afd7)"><g clip-path="url(#6b98dad511)"><g clip-path="url(#cfa9e61844)"><path fill="#404040" d="M 0.433594 0.394531 L 41.5 0.394531 L 41.5 41.460938 L 0.433594 41.460938 Z M 0.433594 0.394531 " fill-opacity="1" fill-rule="nonzero"/></g></g></g></g></g></g><g clip-path="url(#4b6cb81bf1)"><g clip-path="url(#a155414c55)"><g transform="matrix(1, 0, 0, 1, 335, 111)"><g clip-path="url(#e855708dc8)"><g clip-path="url(#ab04046feb)"><g clip-path="url(#e1c9851639)"><path fill="#404040" d="M 0.796875 0.246094 L 41.863281 0.246094 L 41.863281 41.3125 L 0.796875 41.3125 Z M 0.796875 0.246094 " fill-opacity="1" fill-rule="nonzero"/></g></g></g></g></g></g><g clip-path="url(#74acc8b432)"><g clip-path="url(#29e451673d)"><g transform="matrix(1, 0, 0, 1, 371, 221)"><g clip-path="url(#bb04a68690)"><g clip-path="url(#9bfe0afc54)"><g clip-path="url(#e4d7bc3a07)"><path fill="#404040" d="M 0.335938 0.488281 L 41.40625 0.488281 L 41.40625 41.554688 L 0.335938 41.554688 Z M 0.335938 0.488281 " fill-opacity="1" fill-rule="nonzero"/></g></g></g></g></g></g><g clip-path="url(#7ecb75e049)"><g clip-path="url(#2e9fe376b7)"><g transform="matrix(1, 0, 0, 1, 473, 396)"><g clip-path="url(#f5ca087352)"><g clip-path="url(#289d23a69f)"><g clip-path="url(#70c9ac2552)"><path fill="#404040" d="M 0.109375 0.0273438 L 41.175781 0.0273438 L 41.175781 41.09375 L 0.109375 41.09375 Z M 0.109375 0.0273438 " fill-opacity="1" fill-rule="nonzero"/></g></g></g></g></g></g><g clip-path="url(#ed105e9dab)"><g clip-path="url(#b102637826)"><g transform="matrix(1, 0, 0, 1, 372, 483)"><g clip-path="url(#7bcafae7cb)"><g clip-path="url(#41990f2027)"><g clip-path="url(#37b7e5be32)"><path fill="#404040" d="M 0.988281 0.886719 L 42.058594 0.886719 L 42.058594 41.953125 L 0.988281 41.953125 Z M 0.988281 0.886719 " fill-opacity="1" fill-rule="nonzero"/></g></g></g></g></g></g><g clip-path="url(#05802dcfe8)"><g clip-path="url(#5c574d5008)"><g transform="matrix(1, 0, 0, 1, 466, 496)"><g clip-path="url(#c8da35549e)"><g clip-path="url(#d74f09b827)"><g clip-path="url(#fed7b28ce9)"><path fill="#404040" d="M 0.839844 0.851562 L 41.90625 0.851562 L 41.90625 41.921875 L 0.839844 41.921875 Z M 0.839844 0.851562 " fill-opacity="1" fill-rule="nonzero"/></g></g></g></g></g></g><g clip-path="url(#ec33a1e7f1)"><g clip-path="url(#cfd00287f0)"><g transform="matrix(1, 0, 0, 1, 213, 565)"><g clip-path="url(#63f973a54b)"><g clip-path="url(#17fef59f15)"><g clip-path="url(#ee4fb84b36)"><path fill="#404040" d="M 0.707031 0.00390625 L 41.773438 0.00390625 L 41.773438 41.074219 L 0.707031 41.074219 Z M 0.707031 0.00390625 " fill-opacity="1" fill-rule="nonzero"/></g></g></g></g></g></g><g clip-path="url(#c0cc14dc15)"><g clip-path="url(#9e5894983a)"><g transform="matrix(1, 0, 0, 1, 275, 796)"><g clip-path="url(#bc7e0538a9)"><g clip-path="url(#60cfc021aa)"><g clip-path="url(#6970bfa5fa)"><path fill="#404040" d="M 0.585938 0.890625 L 41.65625 0.890625 L 41.65625 41.957031 L 0.585938 41.957031 Z M 0.585938 0.890625 " fill-opacity="1" fill-rule="nonzero"/></g></g></g></g></g></g><g clip-path="url(#9b9e9ece66)"><g clip-path="url(#d8739499ab)"><g transform="matrix(1, 0, 0, 1, 441, 766)"><g clip-path="url(#bb7aa16e8f)"><g clip-path="url(#7539cf60f7)"><g clip-path="url(#457497b0ea)"><path fill="#404040" d="M 0.332031 0.417969 L 41.402344 0.417969 L 41.402344 41.488281 L 0.332031 41.488281 Z M 0.332031 0.417969 " fill-opacity="1" fill-rule="nonzero"/></g></g></g></g></g></g><g clip-path="url(#a85f938323)"><g clip-path="url(#16c9eba963)"><g transform="matrix(1, 0, 0, 1, 576, 600)"><g clip-path="url(#300e442dff)"><g clip-path="url(#e93db35f95)"><g clip-path="url(#3106a9393b)"><path fill="#404040" d="M 0.375 0.394531 L 41.441406 0.394531 L 41.441406 41.464844 L 0.375 41.464844 Z M 0.375 0.394531 " fill-opacity="1" fill-rule="nonzero"/></g></g></g></g></g></g><g clip-path="url(#efaeda0dfd)"><g clip-path="url(#b86fa34521)"><g transform="matrix(1, 0, 0, 1, 322, 938)"><g clip-path="url(#899a0d4c67)"><g clip-path="url(#df067de677)"><g clip-path="url(#39cbfc430e)"><path fill="#ffffff" d="M 0.929688 0.703125 L 50.230469 0.703125 L 50.230469 50 L 0.929688 50 Z M 0.929688 0.703125 " fill-opacity="1" fill-rule="nonzero"/></g></g></g></g></g></g><g clip-path="url(#00499534ce)"><g clip-path="url(#3122f2cdd0)"><g transform="matrix(1, 0, 0, 1, 322, -0.000000000000042633)"><g clip-path="url(#296587156a)"><g clip-path="url(#5e7a450474)"><g clip-path="url(#b8b65b532a)"><path fill="#ffffff" d="M 0.929688 0.636719 L 50.230469 0.636719 L 50.230469 49.9375 L 0.929688 49.9375 Z M 0.929688 0.636719 " fill-opacity="1" fill-rule="nonzero"/></g></g></g></g></g></g><g clip-path="url(#f233440565)"><g clip-path="url(#bcbd72158e)"><g transform="matrix(1, 0, 0, 1, 102, 151)"><g clip-path="url(#235b3264bf)"><g clip-path="url(#b78eb29fb6)"><g clip-path="url(#5662bfb334)"><path fill="#ffffff" d="M 0.640625 0.945312 L 49.9375 0.945312 L 49.9375 50.246094 L 0.640625 50.246094 Z M 0.640625 0.945312 " fill-opacity="1" fill-rule="nonzero"/></g></g></g></g></g></g><g clip-path="url(#15ea3fad6e)"><g clip-path="url(#d637779c72)"><g transform="matrix(1, 0, 0, 1, 541, 151)"><g clip-path="url(#f07486d874)"><g clip-path="url(#7872d0c38d)"><g clip-path="url(#a97d9b36ab)"><path fill="#ffffff" d="M 0.859375 0.945312 L 50.15625 0.945312 L 50.15625 50.246094 L 0.859375 50.246094 Z M 0.859375 0.945312 " fill-opacity="1" fill-rule="nonzero"/></g></g></g></g></g></g><g clip-path="url(#40cd00aa34)"><g clip-path="url(#29543fe63c)"><g transform="matrix(1, 0, 0, 1, 644, 235)"><g clip-path="url(#92e3098355)"><g clip-path="url(#820ec0cc0f)"><g clip-path="url(#644b613919)"><path fill="#ffffff" d="M 0.152344 0.234375 L 49.453125 0.234375 L 49.453125 49.53125 L 0.152344 49.53125 Z M 0.152344 0.234375 " fill-opacity="1" fill-rule="nonzero"/></g></g></g></g></g></g><g clip-path="url(#212c7e6f6d)"><g clip-path="url(#600fc96950)"><g transform="matrix(1, 0, 0, 1, 0.000000000000028422, 235)"><g clip-path="url(#524e9775c2)"><g clip-path="url(#68cb69456a)"><g clip-path="url(#d6fac7bfc7)"><path fill="#ffffff" d="M 0.546875 0.234375 L 49.847656 0.234375 L 49.847656 49.53125 L 0.546875 49.53125 Z M 0.546875 0.234375 " fill-opacity="1" fill-rule="nonzero"/></g></g></g></g></g></g><g clip-path="url(#7911d15f83)"><g clip-path="url(#419bf4132c)"><g transform="matrix(1, 0, 0, 1, 194, 220)"><g clip-path="url(#8456a6a1f6)"><g clip-path="url(#5e1308f546)"><g clip-path="url(#b56a381f32)"><path fill="#ffffff" d="M 0.578125 0.707031 L 49.875 0.707031 L 49.875 50.003906 L 0.578125 50.003906 Z M 0.578125 0.707031 " fill-opacity="1" fill-rule="nonzero"/></g></g></g></g></g></g><g clip-path="url(#495335cb56)"><g clip-path="url(#5bfcc14b77)"><g transform="matrix(1, 0, 0, 1, 449, 219)"><g clip-path="url(#bc7a884f55)"><g clip-path="url(#28c0c3885c)"><g clip-path="url(#ce8e48538c)"><path fill="#ffffff" d="M 0.421875 0.9375 L 49.71875 0.9375 L 49.71875 50.238281 L 0.421875 50.238281 Z M 0.421875 0.9375 " fill-opacity="1" fill-rule="nonzero"/></g></g></g></g></g></g><g clip-path="url(#5de2ef63fa)"><g clip-path="url(#a73b8e5459)"><g transform="matrix(1, 0, 0, 1, 102, 381)"><g clip-path="url(#b19336e3c0)"><g clip-path="url(#fae5f13453)"><g clip-path="url(#c43c9cbd5b)"><path fill="#ffffff" d="M 0.640625 0.421875 L 49.9375 0.421875 L 49.9375 49.722656 L 0.640625 49.722656 Z M 0.640625 0.421875 " fill-opacity="1" fill-rule="nonzero"/></g></g></g></g></g></g><g clip-path="url(#4f2be33311)"><g clip-path="url(#b6b2c1db2b)"><g transform="matrix(1, 0, 0, 1, 541, 381)"><g clip-path="url(#e39fe06c8a)"><g clip-path="url(#1f25df7bbc)"><g clip-path="url(#154bf3b41f)"><path fill="#ffffff" d="M 0.859375 0.421875 L 50.15625 0.421875 L 50.15625 49.722656 L 0.859375 49.722656 Z M 0.859375 0.421875 " fill-opacity="1" fill-rule="nonzero"/></g></g></g></g></g></g><g clip-path="url(#33a926f85c)"><g clip-path="url(#03df322f80)"><g transform="matrix(1, 0, 0, 1, 644, 639)"><g clip-path="url(#267d97dbef)"><g clip-path="url(#a80f3d52c6)"><g clip-path="url(#72f6fdcaef)"><path fill="#ffffff" d="M 0.152344 0.449219 L 49.453125 0.449219 L 49.453125 49.75 L 0.152344 49.75 Z M 0.152344 0.449219 " fill-opacity="1" fill-rule="nonzero"/></g></g></g></g></g></g><g clip-path="url(#8a59e799e0)"><g clip-path="url(#1ffe85b538)"><g transform="matrix(1, 0, 0, 1, 0.000000000000028422, 639)"><g clip-path="url(#ca2ea4d4fc)"><g clip-path="url(#d9c095a90e)"><g clip-path="url(#c8058e8880)"><path fill="#ffffff" d="M 0.546875 0.449219 L 49.847656 0.449219 L 49.847656 49.75 L 0.546875 49.75 Z M 0.546875 0.449219 " fill-opacity="1" fill-rule="nonzero"/></g></g></g></g></g></g><g clip-path="url(#74e927e640)"><g clip-path="url(#9f57b95643)"><g transform="matrix(1, 0, 0, 1, 179, 677)"><g clip-path="url(#19c0acdbb6)"><g clip-path="url(#9d0553fb55)"><g clip-path="url(#30b8d026d8)"><path fill="#ffffff" d="M 0.992188 0.78125 L 50.289062 0.78125 L 50.289062 50.082031 L 0.992188 50.082031 Z M 0.992188 0.78125 " fill-opacity="1" fill-rule="nonzero"/></g></g></g></g></g></g><g clip-path="url(#dbefd7a741)"><g clip-path="url(#a10cdfeba1)"><g transform="matrix(1, 0, 0, 1, 463, 677)"><g clip-path="url(#41a5df0d14)"><g clip-path="url(#1fafc67430)"><g clip-path="url(#e8b2b4b686)"><path fill="#ffffff" d="M 0.648438 0.78125 L 49.945312 0.78125 L 49.945312 50.082031 L 0.648438 50.082031 Z M 0.648438 0.78125 " fill-opacity="1" fill-rule="nonzero"/></g></g></g></g></g></g><g clip-path="url(#dbf14c5e53)"><g clip-path="url(#fd0fe2d387)"><g transform="matrix(1, 0, 0, 1, 295, 737)"><g clip-path="url(#b6aaa72a9a)"><g clip-path="url(#88b757283a)"><g clip-path="url(#8939c03e46)"><path fill="#ffffff" d="M 0.214844 0.105469 L 49.511719 0.105469 L 49.511719 49.402344 L 0.214844 49.402344 Z M 0.214844 0.105469 " fill-opacity="1" fill-rule="nonzero"/></g></g></g></g></g></g><g clip-path="url(#349a5776db)"><g clip-path="url(#353af9a4c2)"><g transform="matrix(1, 0, 0, 1, 142, 779)"><g clip-path="url(#d4faebd842)"><g clip-path="url(#c5d96b3eee)"><g clip-path="url(#317ca32018)"><path fill="#ffffff" d="M 0.992188 0.492188 L 50.289062 0.492188 L 50.289062 49.789062 L 0.992188 49.789062 Z M 0.992188 0.492188 " fill-opacity="1" fill-rule="nonzero"/></g></g></g></g></g></g><g clip-path="url(#0401c5464f)"><path stroke-linecap="butt" transform="matrix(0.704217, 1.231839, -1.231839, 0.704217, 351.14771, 22.337814)" fill="none" stroke-linejoin="miter" d="M -0.000436627 2.998994 L 178.302057 2.99994 " stroke="#ffffff" stroke-width="6" stroke-opacity="1" stroke-miterlimit="4"/></g><g clip-path="url(#2a537c2f6a)"><path stroke-linecap="butt" transform="matrix(-0.704023, 1.23195, -1.23195, -0.704023, 349.665873, 27.402921)" fill="none" stroke-linejoin="miter" d="M -0.00065062 3.001405 L 179.687503 3.000905 " stroke="#ffffff" stroke-width="6" stroke-opacity="1" stroke-miterlimit="4"/></g><g clip-path="url(#422c62d2a1)"><path stroke-linecap="butt" transform="matrix(1.165546, 0.809229, -0.809229, 1.165546, 347.837105, 21.212704)" fill="none" stroke-linejoin="miter" d="M 0.00106977 3.000627 L 188.210838 3.000482 " stroke="#ffffff" stroke-width="6" stroke-opacity="1" stroke-miterlimit="4"/></g><g clip-path="url(#0b31f86d85)"><path stroke-linecap="butt" transform="matrix(-1.165182, 0.809753, -0.809753, -1.165182, 349.810248, 29.040221)" fill="none" stroke-linejoin="miter" d="M -0.00174209 3.000254 L 188.089754 2.999468 " stroke="#ffffff" stroke-width="6" stroke-opacity="1" stroke-miterlimit="4"/></g><g clip-path="url(#853f7b905a)"><path stroke-linecap="butt" transform="matrix(1.094938, -0.902475, 0.902475, 1.094938, 22.805033, 256.328485)" fill="none" stroke-linejoin="miter" d="M -0.000394446 2.99966 L 94.068621 2.999999 " stroke="#ffffff" stroke-width="6" stroke-opacity="1" stroke-miterlimit="4"/></g><path stroke-linecap="butt" transform="matrix(-1.13476, -0.851861, 0.851861, -1.13476, 216.766003, 249.392567)" fill="none" stroke-linejoin="miter" d="M 0.000719899 2.999463 L 80.950529 2.998603 " stroke="#ffffff" stroke-width="6" stroke-opacity="1" stroke-miterlimit="4"/><path stroke-linecap="butt" transform="matrix(1.141815, -0.842382, 0.842382, 1.141815, 471.810812, 241.571707)" fill="none" stroke-linejoin="miter" d="M 0.00151123 3.000189 L 80.85142 3.001128 " stroke="#ffffff" stroke-width="6" stroke-opacity="1" stroke-miterlimit="4"/><g clip-path="url(#9da3aaf4eb)"><path stroke-linecap="butt" transform="matrix(-1.099781, -0.896566, 0.896566, -1.099781, 665.985842, 262.931765)" fill="none" stroke-linejoin="miter" d="M -0.000305567 2.999894 L 92.80204 2.999623 " stroke="#ffffff" stroke-width="6" stroke-opacity="1" stroke-miterlimit="4"/></g><g clip-path="url(#09c95e41f5)"><path stroke-linecap="butt" transform="matrix(0.811619, 1.163883, -1.163883, 0.811619, 28.609886, 257.233289)" fill="none" stroke-linejoin="miter" d="M -0.0005273 3.000536 L 125.982076 3.000476 " stroke="#ffffff" stroke-width="6" stroke-opacity="1" stroke-miterlimit="4"/></g><path stroke-linecap="butt" transform="matrix(-0.706992, 1.230249, -1.230249, -0.706992, 223.542076, 247.621746)" fill="none" stroke-linejoin="miter" d="M -0.000553392 3.000129 L 131.031539 2.998619 " stroke="#ffffff" stroke-width="6" stroke-opacity="1" stroke-miterlimit="4"/><g clip-path="url(#b430990c15)"><path stroke-linecap="butt" transform="matrix(0.00130112, 1.418925, -1.418925, 0.00130112, 29.376732, 259.942664)" fill="none" stroke-linejoin="miter" d="M -0.000883385 2.999199 L 284.738293 2.998766 " stroke="#ffffff" stroke-width="6" stroke-opacity="1" stroke-miterlimit="4"/></g><g clip-path="url(#a313ce50c7)"><path stroke-linecap="butt" transform="matrix(1.011976, 0.994613, -0.994613, 1.011976, 28.173451, 660.982392)" fill="none" stroke-linejoin="miter" d="M 0.00149995 2.999723 L 140.861708 2.99995 " stroke="#ffffff" stroke-width="6" stroke-opacity="1" stroke-miterlimit="4"/></g><g clip-path="url(#73f6edf035)"><path stroke-linecap="butt" transform="matrix(1.388679, 0.291409, -0.291409, 1.388679, 26.063754, 660.137521)" fill="none" stroke-linejoin="miter" d="M 0.0014608 3.000507 L 129.215702 2.999135 " stroke="#ffffff" stroke-width="6" stroke-opacity="1" stroke-miterlimit="4"/></g><g clip-path="url(#ccc11d91d0)"><path stroke-linecap="butt" transform="matrix(0.528659, -1.316764, 1.316764, 0.528659, 19.504448, 664.07772)" fill="none" stroke-linejoin="miter" d="M -0.000663405 2.999039 L 197.224798 2.999514 " stroke="#ffffff" stroke-width="6" stroke-opacity="1" stroke-miterlimit="4"/></g><path stroke-linecap="butt" transform="matrix(-0.356586, -1.373388, 1.373388, -0.356586, 200.858094, 704.794749)" fill="none" stroke-linejoin="miter" d="M -0.000771185 2.998565 L 216.752886 3.000153 " stroke="#ffffff" stroke-width="6" stroke-opacity="1" stroke-miterlimit="4"/><path stroke-linecap="butt" transform="matrix(-0.460684, 1.342058, -1.342058, -0.460684, 208.274069, 704.168205)" fill="none" stroke-linejoin="miter" d="M -0.000252982 3.001429 L 76.258039 2.999915 " stroke="#ffffff" stroke-width="6" stroke-opacity="1" stroke-miterlimit="4"/><path stroke-linecap="butt" transform="matrix(1.261572, 0.649449, -0.649449, 1.261572, 206.769617, 698.715117)" fill="none" stroke-linejoin="miter" d="M -0.000546981 3.000413 L 91.600602 2.998846 " stroke="#ffffff" stroke-width="6" stroke-opacity="1" stroke-miterlimit="4"/><g clip-path="url(#2ba935a243)"><path stroke-linecap="butt" transform="matrix(1.066325, 0.936109, -0.936109, 1.066325, 170.182393, 801.184452)" fill="none" stroke-linejoin="miter" d="M 0.00020993 2.999241 L 169.413138 3.000019 " stroke="#ffffff" stroke-width="6" stroke-opacity="1" stroke-miterlimit="4"/></g><g clip-path="url(#6a74c0d5e5)"><path stroke-linecap="butt" transform="matrix(0.679117, 1.245853, -1.245853, 0.679117, 208.692252, 700.163277)" fill="none" stroke-linejoin="miter" d="M -0.00140096 3.000496 L 209.792427 2.998855 " stroke="#ffffff" stroke-width="6" stroke-opacity="1" stroke-miterlimit="4"/></g><path stroke-linecap="butt" transform="matrix(1.418922, -0.00310244, 0.00310244, 1.418922, 219.842702, 241.243641)" fill="none" stroke-linejoin="miter" d="M -0.000313992 2.999713 L 179.113458 3.000419 " stroke="#ffffff" stroke-width="6" stroke-opacity="1" stroke-miterlimit="4"/><path stroke-linecap="butt" transform="matrix(1.418923, 0.0023097, -0.0023097, 1.418923, 204.54487, 697.673613)" fill="none" stroke-linejoin="miter" d="M 0.000789533 2.999508 L 200.042417 2.998734 " stroke="#ffffff" stroke-width="6" stroke-opacity="1" stroke-miterlimit="4"/><path stroke-linecap="butt" transform="matrix(0.70197, 1.233121, -1.233121, 0.70197, 477.731947, 242.124072)" fill="none" stroke-linejoin="miter" d="M -0.000166957 3.000987 L 131.16864 2.999718 " stroke="#ffffff" stroke-width="6" stroke-opacity="1" stroke-miterlimit="4"/><g clip-path="url(#7243bceefc)"><path stroke-linecap="butt" transform="matrix(0.813409, -1.162633, 1.162633, 0.813409, 563.080692, 403.428144)" fill="none" stroke-linejoin="miter" d="M 0.00137928 3.000517 L 125.704799 2.998625 " stroke="#ffffff" stroke-width="6" stroke-opacity="1" stroke-miterlimit="4"/></g><path stroke-linecap="butt" transform="matrix(-1.336297, 0.477138, -0.477138, -1.336297, 489.787434, 706.423724)" fill="none" stroke-linejoin="miter" d="M 0.000183425 3.000644 L 126.38483 2.999297 " stroke="#ffffff" stroke-width="6" stroke-opacity="1" stroke-miterlimit="4"/><g clip-path="url(#5759ee338e)"><path stroke-linecap="butt" transform="matrix(-0.673103, 1.249112, -1.249112, -0.673103, 491.905698, 704.580933)" fill="none" stroke-linejoin="miter" d="M -0.0000552823 2.998594 L 209.21226 3.00076 " stroke="#ffffff" stroke-width="6" stroke-opacity="1" stroke-miterlimit="4"/></g><g clip-path="url(#9f7c793750)"><path stroke-linecap="butt" transform="matrix(0.192858, 1.405758, -1.405758, 0.192858, 324.049391, 761.408151)" fill="none" stroke-linejoin="miter" d="M 0.00107757 3.00021 L 144.046051 2.999498 " stroke="#ffffff" stroke-width="6" stroke-opacity="1" stroke-miterlimit="4"/></g><g clip-path="url(#5d6cb42c1d)"><path stroke-linecap="butt" transform="matrix(-1.038816, 0.966546, -0.966546, -1.038816, 672.301082, 667.609416)" fill="none" stroke-linejoin="miter" d="M -0.000838587 2.999971 L 309.760579 3.000066 " stroke="#ffffff" stroke-width="6" stroke-opacity="1" stroke-miterlimit="4"/></g><g clip-path="url(#5c682d948f)"><path stroke-linecap="butt" transform="matrix(0.00129987, -1.418925, 1.418925, 0.00129987, 664.748043, 664.38288)" fill="none" stroke-linejoin="miter" d="M 0.0000424202 2.999358 L 285.00075 2.999803 " stroke="#ffffff" stroke-width="6" stroke-opacity="1" stroke-miterlimit="4"/></g><g clip-path="url(#9d11abb2e4)"><path stroke-linecap="butt" transform="matrix(-1.388393, 0.292769, -0.292769, -1.388393, 670.38413, 668.410488)" fill="none" stroke-linejoin="miter" d="M 0.00143632 2.999737 L 130.517094 2.999722 " stroke="#ffffff" stroke-width="6" stroke-opacity="1" stroke-miterlimit="4"/></g><g clip-path="url(#258705fecc)"><path stroke-linecap="butt" transform="matrix(0.52436, 1.318482, -1.318482, 0.52436, 570.239555, 404.297951)" fill="none" stroke-linejoin="miter" d="M 0.000314729 2.99933 L 196.079865 2.99916 " stroke="#ffffff" stroke-width="6" stroke-opacity="1" stroke-miterlimit="4"/></g><path stroke-linecap="butt" transform="matrix(0.367772, -1.370435, 1.370435, 0.367772, 483.913171, 702.172965)" fill="none" stroke-linejoin="miter" d="M -0.000912684 2.999487 L 217.459779 2.999887 " stroke="#ffffff" stroke-width="6" stroke-opacity="1" stroke-miterlimit="4"/></g></g></svg>